<?xml version="1.0" encoding="utf-8"?>
<!-- Generator: Adobe Illustrator 28.0.0, SVG Export Plug-In . SVG Version: 6.00 Build 0)  -->
<svg version="1.1" id="Layer_1" xmlns="http://www.w3.org/2000/svg" xmlns:xlink="http://www.w3.org/1999/xlink" x="0px" y="0px"
	 viewBox="0 0 105 64" style="enable-background:new 0 0 105 64;" xml:space="preserve">
<style type="text/css">
	.st0{fill:#FFFFFF;stroke:#A7A9AC;stroke-width:0.5;stroke-miterlimit:10;}
	.st1{fill:#BCBEC0;}
	.st2{opacity:0.7;fill:#FFFFFF;}
	.st3{fill:none;stroke:#BCBEC0;stroke-width:0.5;stroke-miterlimit:10;}
</style>
<rect x="8.4" y="15.5" class="st0" width="70.1" height="20"/>
<g>
	<path class="st1" d="M12.4,19.8h4.3c3.4,0,5.4,2.1,5.4,5.7v0c0,3.7-2,5.8-5.4,5.8h-4.3V19.8z M16.5,29.6c2.3,0,3.6-1.5,3.6-4v0
		c0-2.5-1.3-4-3.6-4h-2v8.1H16.5z"/>
	<path class="st1" d="M24.5,19.8h2.1v11.5h-2.1V19.8z"/>
	<path class="st1" d="M28.9,25.6L28.9,25.6c0-3.7,2.1-6.1,5.4-6.1c2.7,0,4.6,1.5,5,3.8l0,0.1h-2l0-0.1c-0.4-1.3-1.4-2-2.9-2
		c-2,0-3.3,1.6-3.3,4.2v0c0,2.6,1.3,4.3,3.4,4.3c1.8,0,3-1.1,3-2.7l0-0.2h-2.8v-1.6h4.8v1.4c0,3-2,4.9-5,4.9
		C31,31.6,28.9,29.3,28.9,25.6z"/>
	<path class="st1" d="M41.8,19.8h2.1v11.5h-2.1V19.8z"/>
	<path class="st1" d="M49.6,21.6H46v-1.7h9.2v1.7h-3.6v9.8h-2.1V21.6z"/>
	<path class="st1" d="M59.3,19.8h2.3l4.1,11.5h-2.2l-1-3h-4.3l-1,3h-2.2L59.3,19.8z M58.9,26.8h3.2L60.6,22h-0.1L58.9,26.8z"/>
	<path class="st1" d="M67.7,19.8h2.1v9.8h5.3v1.7h-7.4V19.8z"/>
</g>
<g>
	<rect x="41.4" y="29.5" class="st2" width="55.1" height="20"/>
	<rect x="41.4" y="29.5" class="st3" width="55.1" height="20"/>
</g>
<g>
	<path class="st1" d="M44.9,42.3l0-0.1h2l0,0.1c0.1,1,1.1,1.6,2.6,1.6c1.4,0,2.4-0.7,2.4-1.7v0c0-0.8-0.6-1.3-2.1-1.7l-1.2-0.3
		c-2.4-0.5-3.4-1.6-3.4-3.3v0c0-2.1,1.8-3.5,4.3-3.5c2.6,0,4.1,1.4,4.3,3.3l0,0.1h-2l0-0.1c-0.1-0.9-1-1.5-2.3-1.5
		c-1.3,0-2.2,0.6-2.2,1.6v0c0,0.8,0.6,1.3,2,1.6l1.2,0.3c2.4,0.5,3.4,1.5,3.4,3.2v0c0,2.2-1.7,3.7-4.5,3.7
		C46.7,45.6,45,44.3,44.9,42.3z"/>
	<path class="st1" d="M56.2,33.8h2.1v9.8h5.3v1.7h-7.4V33.8z"/>
	<path class="st1" d="M65.8,33.8h2.1v11.5h-2.1V33.8z"/>
	<path class="st1" d="M70.2,39.6L70.2,39.6c0-3.8,2-6.1,5.3-6.1c2.6,0,4.6,1.7,4.9,4v0.1h-2l0,0c-0.3-1.4-1.4-2.3-2.9-2.3
		c-2,0-3.2,1.6-3.2,4.3v0c0,2.6,1.2,4.3,3.2,4.3c1.5,0,2.6-0.8,2.8-2.1l0,0h2v0.1c-0.3,2.3-2.2,3.9-4.9,3.9
		C72.3,45.6,70.2,43.3,70.2,39.6z"/>
	<path class="st1" d="M82.7,33.8h7.5v1.7h-5.4v3.1h5.1v1.6h-5.1v3.3h5.4v1.7h-7.5V33.8z"/>
</g>
</svg>
