<?xml version="1.0" encoding="utf-8"?>
<!-- Generator: Adobe Illustrator 28.0.0, SVG Export Plug-In . SVG Version: 6.00 Build 0)  -->
<svg version="1.1" id="Layer_1" xmlns="http://www.w3.org/2000/svg" xmlns:xlink="http://www.w3.org/1999/xlink" x="0px" y="0px"
	 viewBox="0 0 158.8 34.5" style="enable-background:new 0 0 158.8 34.5;" xml:space="preserve">
<style type="text/css">
	.st0{fill:#FFFFFF;}
	.st1{fill:#A7A9AC;}
	.st2{display:none;}
	.st3{display:inline;fill:#BCBEC0;}
	.st4{fill:#BCBEC0;}
	.st5{opacity:0.7;enable-background:new    ;}
</style>
<g>
	<rect y="0.2" class="st0" width="100.1" height="20"/>
	<path class="st1" d="M100.3,20.5H-0.3V0h100.6V20.5z M0.2,20h99.6V0.5H0.2V20z"/>
</g>
<g class="st2">
	<path class="st3" d="M34,4.5h4.3c3.4,0,5.4,2.1,5.4,5.7l0,0c0,3.7-2,5.8-5.4,5.8H34C34,16,34,4.5,34,4.5z M38.1,14.4
		c2.3,0,3.6-1.5,3.6-4l0,0c0-2.5-1.3-4-3.6-4h-2v8.1h2V14.4z"/>
	<path class="st3" d="M46.1,4.5h2.1V16h-2.1V4.5z"/>
	<path class="st3" d="M50.5,10.4L50.5,10.4c0-3.7,2.1-6.1,5.4-6.1c2.7,0,4.6,1.5,5,3.8v0.1h-2V8c-0.4-1.3-1.4-2-2.9-2
		c-2,0-3.3,1.6-3.3,4.2l0,0c0,2.6,1.3,4.3,3.4,4.3c1.8,0,3-1.1,3-2.7v-0.2h-2.8V10h4.8v1.4c0,3-2,4.9-5,4.9
		C52.6,16.4,50.5,14,50.5,10.4z"/>
	<path class="st3" d="M63.4,4.5h2.1V16h-2.1V4.5z"/>
	<path class="st3" d="M71.2,6.4h-3.6V4.6h9.2v1.7h-3.6v9.8h-2.1L71.2,6.4L71.2,6.4z"/>
	<path class="st3" d="M80.9,4.5h2.3L87.3,16h-2.2l-1-3h-4.3l-1,3h-2.2L80.9,4.5z M80.5,11.5h3.2l-1.5-4.8h-0.1L80.5,11.5z"/>
	<path class="st3" d="M89.3,4.5h2.1v9.8h5.3V16h-7.4V4.5z"/>
</g>
<g>
	<path class="st4" d="M4.4,4.7h7.5v2H6.8v2.7h4.9v1.9H6.8v2.9h5.2v2H4.4V4.7z"/>
	<path class="st4" d="M17.2,9.4l-0.6,1.9v-1.1l-3.6-5.6h2.8l2.4,4.1h1.1l-1.5,0.9l2.9-5h2.7l-3.7,5.7v1.1l-0.6-1.9l4.2,6.6h-2.7
		l-2.5-4h-1.1l1.6-0.9l-3,4.9h-2.6L17.2,9.4z"/>
	<path class="st4" d="M24.7,4.7h2.4v4.6h5.1V4.7h2.4V16h-2.4v-4.8h-5.1V16h-2.4V4.7z"/>
	<path class="st4" d="M36.5,4.7h2.4V16h-2.4V4.7z"/>
	<path class="st4" d="M40.8,4.7h2.4V16h-2.4V4.7z M42,14.3h3.2c0.7,0,1.2-0.1,1.6-0.4c0.4-0.3,0.5-0.7,0.5-1.2v0
		c0-0.3-0.1-0.6-0.2-0.9c-0.2-0.2-0.4-0.4-0.7-0.5C46,11.1,45.6,11,45.2,11H42V9.4h2.9c0.7,0,1.2-0.1,1.5-0.4s0.5-0.6,0.5-1.1v0
		c0-0.5-0.2-0.8-0.5-1c-0.3-0.2-0.7-0.4-1.3-0.4H42V4.7h3.8c0.7,0,1.3,0.1,1.9,0.3c0.5,0.2,0.9,0.6,1.2,1c0.3,0.4,0.4,0.9,0.4,1.5v0
		c0,0.4-0.1,0.8-0.3,1.2c-0.2,0.4-0.5,0.7-0.8,0.9c-0.3,0.2-0.7,0.4-1.1,0.4v0c0.5,0,1,0.2,1.4,0.4c0.4,0.2,0.7,0.6,1,1
		s0.4,0.8,0.4,1.3v0c0,0.7-0.2,1.2-0.5,1.7C49,15,48.6,15.4,48,15.7c-0.6,0.3-1.3,0.4-2.1,0.4H42V14.3z"/>
	<path class="st4" d="M51.2,4.7h2.4V16h-2.4V4.7z"/>
	<path class="st4" d="M58.2,6.6h-3.3v-2h9v2h-3.3V16h-2.4V6.6z"/>
	<path class="st4" d="M65.2,4.7h2.4V16h-2.4V4.7z"/>
	<path class="st4" d="M71.7,15.5c-0.8-0.5-1.5-1.2-1.9-2c-0.4-0.9-0.7-1.9-0.7-3.1v0c0-1.2,0.2-2.3,0.7-3.1c0.4-0.9,1.1-1.6,1.9-2
		c0.8-0.5,1.8-0.7,2.9-0.7c1.1,0,2.1,0.2,2.9,0.7c0.8,0.5,1.5,1.2,1.9,2c0.4,0.9,0.7,1.9,0.7,3.1v0c0,1.2-0.2,2.3-0.7,3.1
		s-1.1,1.6-1.9,2s-1.8,0.7-2.9,0.7C73.5,16.2,72.5,16,71.7,15.5z M76.2,13.7c0.5-0.3,0.8-0.8,1.1-1.3s0.4-1.3,0.4-2v0
		c0-0.8-0.1-1.5-0.4-2.1c-0.2-0.6-0.6-1-1.1-1.3s-1-0.5-1.6-0.5C74,6.5,73.4,6.6,73,7c-0.5,0.3-0.8,0.8-1.1,1.3
		c-0.2,0.6-0.4,1.3-0.4,2.1v0c0,0.8,0.1,1.5,0.4,2.1s0.6,1,1.1,1.3c0.5,0.3,1,0.5,1.6,0.5C75.2,14.2,75.8,14.1,76.2,13.7z"/>
	<path class="st4" d="M81.6,4.7h2.1l6.2,8.9l-2-1.5h1V4.7h2.4V16h-2.1l-6.2-9l2,1.5h-1V16h-2.4V4.7z"/>
</g>
<g>
	<g class="st5">
		<rect x="32.1" y="14.2" class="st0" width="126.4" height="20"/>
	</g>
	<g>
		<path class="st4" d="M158.8,34.5H31.9V14h126.9V34.5z M32.4,34h125.9V14.5H32.4V34z"/>
	</g>
</g>
<g>
	<path class="st4" d="M36.6,18.6H39V30h-2.4V18.6z"/>
	<path class="st4" d="M40.9,18.6H43l6.2,8.9l-2-1.5h1v-7.4h2.4V30h-2.1l-6.2-9l2,1.5h-1V30h-2.4V18.6z"/>
	<path class="st4" d="M55.1,20.5h-3.3v-2h9v2h-3.3V30h-2.4V20.5z"/>
	<path class="st4" d="M62.2,18.6h4.7c0.9,0,1.6,0.1,2.2,0.4s1.1,0.7,1.4,1.3s0.5,1.2,0.5,2v0c0,0.8-0.2,1.4-0.6,2
		c-0.4,0.6-0.9,1-1.5,1.2l2.4,4.5h-2.7l-2.1-4.1c0,0,0,0-0.1,0s0,0-0.1,0h-1.8V30h-2.4V18.6z M66.6,24c0.6,0,1.1-0.2,1.4-0.5
		s0.5-0.8,0.5-1.3v0c0-0.5-0.2-1-0.5-1.3s-0.8-0.5-1.4-0.5h-2V24H66.6z"/>
	<path class="st4" d="M74.7,29.4c-0.8-0.5-1.5-1.2-1.9-2c-0.4-0.9-0.7-1.9-0.7-3.1v0c0-1.2,0.2-2.3,0.7-3.1s1.1-1.6,1.9-2
		c0.8-0.5,1.8-0.7,2.9-0.7c1.1,0,2.1,0.2,2.9,0.7c0.8,0.5,1.5,1.2,1.9,2s0.7,1.9,0.7,3.1v0c0,1.2-0.2,2.3-0.7,3.1s-1.1,1.6-1.9,2
		c-0.8,0.5-1.8,0.7-2.9,0.7C76.5,30.1,75.5,29.9,74.7,29.4z M79.3,27.6c0.5-0.3,0.8-0.8,1.1-1.3s0.4-1.3,0.4-2v0
		c0-0.8-0.1-1.5-0.4-2.1c-0.2-0.6-0.6-1-1.1-1.3c-0.5-0.3-1-0.5-1.6-0.5s-1.2,0.2-1.6,0.5c-0.5,0.3-0.8,0.8-1.1,1.3
		c-0.2,0.6-0.4,1.3-0.4,2.1v0c0,0.8,0.1,1.5,0.4,2.1s0.6,1,1.1,1.3s1,0.5,1.6,0.5C78.3,28.1,78.8,28,79.3,27.6z"/>
	<path class="st4" d="M84.7,18.6H89c1.1,0,2.1,0.2,2.9,0.7c0.8,0.4,1.4,1.1,1.9,1.9s0.6,1.9,0.6,3.1v0c0,1.2-0.2,2.2-0.6,3.1
		c-0.4,0.9-1,1.5-1.9,2C91.1,29.7,90.2,30,89,30h-4.4V18.6z M88.7,28c0.7,0,1.3-0.1,1.8-0.4s0.9-0.7,1.1-1.3
		c0.3-0.6,0.4-1.2,0.4-2.1v0c0-0.8-0.1-1.5-0.4-2c-0.3-0.5-0.6-1-1.1-1.2c-0.5-0.3-1.1-0.4-1.8-0.4h-1.7V28H88.7z"/>
	<path class="st4" d="M98.2,29.6c-0.7-0.3-1.3-0.8-1.7-1.5c-0.4-0.6-0.6-1.4-0.6-2.2v-7.4h2.4v7.2c0,0.5,0.1,0.9,0.3,1.3
		c0.2,0.4,0.5,0.6,0.8,0.8c0.4,0.2,0.8,0.3,1.3,0.3c0.5,0,0.9-0.1,1.3-0.3c0.4-0.2,0.6-0.5,0.8-0.8s0.3-0.8,0.3-1.3v-7.2h2.4v7.4
		c0,0.8-0.2,1.6-0.6,2.2c-0.4,0.6-0.9,1.1-1.6,1.5c-0.7,0.4-1.6,0.5-2.5,0.5C99.8,30.1,98.9,30,98.2,29.6z"/>
	<path class="st4" d="M109.6,29.4c-0.8-0.5-1.4-1.1-1.9-2c-0.4-0.9-0.7-1.9-0.7-3.2v0c0-1.2,0.2-2.3,0.7-3.2c0.4-0.9,1.1-1.6,1.9-2
		c0.8-0.5,1.8-0.7,2.9-0.7c0.9,0,1.7,0.2,2.5,0.5c0.7,0.4,1.3,0.9,1.7,1.5c0.4,0.6,0.7,1.3,0.8,2.1l0,0.1h-2.3l0-0.1
		c-0.1-0.4-0.3-0.8-0.5-1.1s-0.5-0.6-0.9-0.7c-0.4-0.2-0.8-0.3-1.2-0.3c-0.6,0-1.1,0.2-1.6,0.5c-0.4,0.3-0.8,0.8-1,1.3
		c-0.2,0.6-0.4,1.3-0.4,2.1v0c0,0.8,0.1,1.5,0.4,2.1c0.2,0.6,0.6,1,1,1.3c0.4,0.3,1,0.5,1.6,0.5c0.5,0,0.9-0.1,1.2-0.3
		c0.4-0.2,0.7-0.4,0.9-0.7s0.4-0.7,0.5-1.2l0-0.1h2.3l0,0.1c-0.1,0.8-0.3,1.5-0.8,2.1c-0.4,0.6-1,1.1-1.7,1.5
		c-0.7,0.4-1.5,0.5-2.5,0.5C111.4,30.1,110.4,29.9,109.6,29.4z"/>
	<path class="st4" d="M121.3,20.5H118v-2h9v2h-3.3V30h-2.4V20.5z"/>
	<path class="st4" d="M128.3,18.6h2.4V30h-2.4V18.6z"/>
	<path class="st4" d="M134.8,29.4c-0.8-0.5-1.5-1.2-1.9-2c-0.4-0.9-0.7-1.9-0.7-3.1v0c0-1.2,0.2-2.3,0.7-3.1c0.4-0.9,1.1-1.6,1.9-2
		c0.8-0.5,1.8-0.7,2.9-0.7c1.1,0,2.1,0.2,2.9,0.7c0.8,0.5,1.5,1.2,1.9,2s0.7,1.9,0.7,3.1v0c0,1.2-0.2,2.3-0.7,3.1s-1.1,1.6-1.9,2
		c-0.8,0.5-1.8,0.7-2.9,0.7C136.6,30.1,135.6,29.9,134.8,29.4z M139.4,27.6c0.5-0.3,0.8-0.8,1.1-1.3s0.4-1.3,0.4-2v0
		c0-0.8-0.1-1.5-0.4-2.1c-0.2-0.6-0.6-1-1.1-1.3c-0.5-0.3-1-0.5-1.6-0.5s-1.2,0.2-1.6,0.5c-0.5,0.3-0.8,0.8-1.1,1.3
		c-0.2,0.6-0.4,1.3-0.4,2.1v0c0,0.8,0.1,1.5,0.4,2.1s0.6,1,1.1,1.3s1,0.5,1.6,0.5C138.4,28.1,138.9,28,139.4,27.6z"/>
	<path class="st4" d="M144.8,18.6h2.1l6.2,8.9l-2-1.5h1v-7.4h2.4V30h-2.1l-6.2-9l2,1.5h-1V30h-2.4V18.6z"/>
</g>
</svg>
