<?xml version="1.0" encoding="utf-8"?>
<!-- Generator: Adobe Illustrator 28.0.0, SVG Export Plug-In . SVG Version: 6.00 Build 0)  -->
<svg version="1.1" id="Layer_1" xmlns="http://www.w3.org/2000/svg" xmlns:xlink="http://www.w3.org/1999/xlink" x="0px" y="0px"
	 viewBox="0 0 35.8 40.1" style="enable-background:new 0 0 35.8 40.1;" xml:space="preserve">
<style type="text/css">
	.st0{fill:#BCBEC0;stroke:#BCBEC0;stroke-width:0.75;stroke-miterlimit:10;}
</style>
<g id="kd3G81_00000113338653285828999590000006622602449918603165_">
	<g>
		<path class="st0" d="M7.4,8c0-1.1,0-2,0-2.9c0-1.3,0.8-2.1,2-2.1c5.2,0,10.3,0,15.5,0c0.4,0,0.8,0.3,1.1,0.5
			c2.1,2,4.1,4.1,6.2,6.2c0.3,0.3,0.6,0.9,0.6,1.4c0,6.6,0,13.1,0,19.7c0,1.7-0.7,2.3-2.4,2.4c-0.8,0-1.6,0-2.5,0c0,0.9,0,1.8,0,2.7
			c0,1.5-0.7,2.3-2.2,2.3c-7,0-14,0-21,0c-1.5,0-2.2-0.8-2.2-2.3c0-8.6,0-17.1,0-25.7C2.5,8.7,3.2,8,4.8,8C5.6,8,6.4,8,7.4,8z
			 M19.7,9.2c-0.4,0-0.8-0.1-1.1-0.1c-4.5,0-9,0-13.5,0c-1.4,0-1.5,0.1-1.5,1.6c0,8.2,0,16.5,0,24.7c0,1.6,0,1.6,1.7,1.6
			c6.6,0,13.1,0,19.7,0c1.6,0,1.7-0.1,1.7-1.6c0-6.1,0-12.1,0-18.2c0-0.3,0-0.7,0-1c-0.2-0.1-0.3-0.1-0.4-0.1c-1.3,0-2.7,0-4,0
			c-2,0-2.6-0.6-2.6-2.6C19.7,12,19.7,10.6,19.7,9.2z M24.7,4.2c-1.5,0-2.8,0-4.1,0c-3.6,0-7.1,0-10.7,0C9.2,4.2,8.6,4.2,8.6,5
			c-0.1,1,0,1.9,0,2.9c3.7,0,7.3,0,10.9,0c0.8,0,1.3,0.2,1.9,0.8c1.9,2,3.9,3.8,5.7,5.8c0.4,0.4,0.7,1.1,0.7,1.7
			c0.1,4.9,0,9.7,0,14.6c0,0.4,0,0.8,0,1.3c0.8,0,1.6,0,2.3,0c1.4,0,1.5-0.1,1.5-1.5c0-6.1,0-12.2,0-18.3c0-0.4,0-0.7-0.1-1.2
			c-1.6,0-3,0-4.5,0c-1.7,0-2.4-0.7-2.4-2.4C24.6,7.3,24.7,5.8,24.7,4.2z M25.8,5.2c0,1.3,0,2.6,0,3.8c0,0.3,0.4,0.8,0.6,0.8
			c1.3,0.1,2.7,0,4,0C28.9,8.4,27.4,6.9,25.8,5.2z M20.9,10.3c0,1.2,0,2.5,0,3.8c0,0.3,0.5,0.7,0.7,0.8c1.3,0.1,2.6,0,3.8,0
			C24,13.4,22.4,11.8,20.9,10.3z"/>
	</g>
</g>
</svg>
