<?xml version="1.0" encoding="utf-8"?>
<!-- Generator: Adobe Illustrator 28.0.0, SVG Export Plug-In . SVG Version: 6.00 Build 0)  -->
<svg version="1.1" id="Layer_1" xmlns="http://www.w3.org/2000/svg" xmlns:xlink="http://www.w3.org/1999/xlink" x="0px" y="0px"
	 viewBox="0 0 35.8 40.1" style="enable-background:new 0 0 35.8 40.1;" xml:space="preserve">
<style type="text/css">
	.st0{fill:#BCBEC0;}
</style>
<g id="yOG4yX.tif">
	<g>
		<path class="st0" d="M11.5,3.8c4.3,0,8.6,0,12.8,0c0,0,0.1,0,0.1,0.1c2.5,0.4,4.1,2.3,4.1,4.9c0,1,0,2,0,3c0,0.1,0,0.2,0,0.3
			c0.3,0,0.6,0,0.9,0c2.1,0,4,1.4,4.5,3.5c0.1,0.2,0.1,0.5,0.2,0.7c0,2.9,0,5.8,0,8.8c0,0.1-0.1,0.1-0.1,0.2c-0.3,2.1-2,3.7-4.1,4
			c-0.5,0.1-1,0.1-1.5,0.1c0,0.1,0,0.2,0,0.4c0,1.3,0,2.5,0,3.8c0,1.8-1.2,3-3,3c-5.1,0-10.2,0-15.3,0c-1.7,0-3-1.2-3-3
			c0-1.3,0-2.6,0-3.9c0-0.1,0-0.2,0-0.3c-0.3,0-0.5,0-0.7,0c-2.8,0-4.9-2.1-4.9-4.9c0-2.4,0-4.9,0-7.3C1.7,14,3.7,12,6.6,12
			c0.2,0,0.5,0,0.7,0c0-1.2,0-2.3,0-3.5c0-2.2,1.5-4,3.6-4.6C11.1,3.9,11.3,3.8,11.5,3.8z M28.6,27.2c0.3,0,0.5,0,0.8,0
			c1.7,0,2.9-1.2,3-2.9c0-2.5,0-5,0-7.5c0-1.7-1.2-2.9-2.9-2.9c-7.6,0-15.3,0-22.9,0c-1.7,0-2.9,1.2-2.9,2.9c0,2.5,0,5,0,7.5
			c0,1.7,1.4,3.3,3.7,2.9c0-1,0-2.1,0-3.1c-0.2,0-0.4,0-0.6,0c-0.5,0-0.8-0.4-0.9-0.8c-0.1-0.5,0.2-0.9,0.7-1c0.1,0,0.3,0,0.5,0
			c7.3,0,14.6,0,22,0c0.1,0,0.1,0,0.2,0c0.5,0,0.9,0.4,0.9,0.9c0,0.5-0.4,0.9-0.9,1c-0.2,0-0.4,0-0.6,0
			C28.6,25.1,28.6,26.1,28.6,27.2z M9.2,24.1c0,0.1,0,0.1,0,0.2c0,3.1,0,6.1,0,9.2c0,0.6,0.4,1,1.1,1c5.1,0,10.1,0,15.2,0
			c0.7,0,1.1-0.4,1.1-1.1c0-3,0-6,0-8.9c0-0.1,0-0.2,0-0.3C20.8,24.1,15,24.1,9.2,24.1z M9.3,12c5.8,0,11.6,0,17.4,0
			c0-1.2,0.1-2.5,0-3.7c-0.1-1.4-1.3-2.6-2.8-2.6c-3.9,0-7.9,0-11.8,0c-1.4,0-2.6,1-2.7,2.3C9.2,9.3,9.3,10.6,9.3,12z"/>
		<path class="st0" d="M8.3,17.9c-0.5,0-1,0-1.5,0c-0.6,0-1-0.4-1-0.9c0-0.5,0.4-1,1-1c1,0,2,0,2.9,0c0.6,0,1,0.4,1,1
			c0,0.5-0.4,0.9-1,0.9C9.3,18,8.8,17.9,8.3,17.9z"/>
		<path class="st0" d="M17.9,28.1c-0.8,0-1.6,0-2.4,0c-0.6,0-1-0.4-1.1-0.9c0-0.6,0.4-1,1.1-1c1.6,0,3.2,0,4.9,0
			c0.6,0,1.1,0.4,1.1,1c0,0.6-0.4,0.9-1.1,0.9C19.5,28.1,18.7,28.1,17.9,28.1z"/>
		<path class="st0" d="M18,30.3c0.8,0,1.6,0,2.4,0c0.6,0,1,0.4,1.1,0.9c0,0.6-0.4,1-1,1c-1.6,0-3.3,0-4.9,0c-0.6,0-1-0.4-1-1
			c0-0.6,0.4-0.9,1.1-0.9C16.3,30.3,17.1,30.3,18,30.3z"/>
	</g>
</g>
</svg>
