<?xml version="1.0" encoding="utf-8"?>
<!-- Generator: Adobe Illustrator 28.0.0, SVG Export Plug-In . SVG Version: 6.00 Build 0)  -->
<svg version="1.1" id="Layer_1" xmlns="http://www.w3.org/2000/svg" xmlns:xlink="http://www.w3.org/1999/xlink" x="0px" y="0px"
	 viewBox="0 0 35.85 40.09" style="enable-background:new 0 0 35.85 40.09;" xml:space="preserve">
<style type="text/css">
	.st0{fill:#BCBEC0;}
</style>
<g>
	<path class="st0" d="M19.72,32.75H6.8c-0.47,0-0.85-0.38-0.85-0.85V6.15c0-0.47,0.38-0.85,0.85-0.85h15.04
		c0.23,0,0.46,0.1,0.62,0.26l4.92,5.17c0.15,0.16,0.24,0.37,0.24,0.59v8.61c0,0.47-0.38,0.85-0.85,0.85s-0.85-0.38-0.85-0.85v-8.27
		L21.47,7H7.65v24.05h12.07c0.47,0,0.85,0.38,0.85,0.85C20.57,32.37,20.19,32.75,19.72,32.75z"/>
</g>
<g>
	<path class="st0" d="M26.76,12.17h-4.92c-0.47,0-0.85-0.38-0.85-0.85V6.15c0-0.35,0.21-0.66,0.54-0.79
		c0.32-0.13,0.69-0.05,0.93,0.2l4.92,5.17c0.24,0.25,0.3,0.61,0.17,0.92C27.4,11.97,27.1,12.17,26.76,12.17z M22.68,10.47h2.08
		l-2.08-2.19V10.47z"/>
</g>
<g>
	<path class="st0" d="M25.56,32.51c-0.22,0-0.44-0.08-0.6-0.25s-0.25-0.38-0.25-0.6c0-0.22,0.08-0.44,0.25-0.6l2.08-2.08h-5.13
		c-0.47,0-0.85-0.38-0.85-0.85s0.38-0.85,0.85-0.85h5.13l-2.08-2.08c-0.33-0.33-0.33-0.87,0-1.2c0.33-0.33,0.87-0.33,1.2,0
		l3.53,3.53c0.02,0.02,0.03,0.03,0.05,0.05c0.11,0.13,0.18,0.29,0.2,0.45c0.01,0.06,0.01,0.11,0.01,0.17c0,0,0,0,0,0l0,0
		c-0.01,0.2-0.09,0.39-0.24,0.54c0,0,0,0,0,0c0,0,0,0,0,0c0,0,0,0,0,0c0,0,0,0,0,0l-3.54,3.54C26,32.42,25.78,32.51,25.56,32.51z"/>
</g>
</svg>
